<svg width="16" height="16" viewBox="0 0 16 16" fill="none" xmlns="http://www.w3.org/2000/svg">
<path d="M1.78444 3.5751C2.09031 3.24771 2.53932 2.7935 2.97894 2.35572C3.75682 1.58108 5.01441 1.59656 5.78497 2.37848L6.27596 2.87671C6.85637 3.46568 6.80222 4.38054 6.3439 5.06879C5.63361 6.13543 5.95844 6.93988 7.51291 8.49436C9.07006 10.0515 9.85541 10.3556 10.9192 9.63498C11.6016 9.17277 12.5137 9.12309 13.1007 9.70161L13.622 10.2154C14.4044 10.9865 14.4192 12.245 13.6439 13.0233C13.2075 13.4613 12.7547 13.9092 12.4266 14.2173C9.71752 16.7605 -0.752569 6.2906 1.78444 3.5751Z" stroke="white" stroke-width="1.2"/>
</svg>
