<svg width="18" height="17" viewBox="0 0 18 17" fill="none" xmlns="http://www.w3.org/2000/svg">
<path d="M7.89255 2.44208C8.32414 1.49036 9.67586 1.49036 10.1075 2.44208V2.44208C10.4028 3.09338 11.1937 3.35041 11.8155 2.99719L11.9404 2.92627C12.82 2.42658 13.8729 3.21458 13.6415 4.19943V4.19943C13.4799 4.88727 13.9659 5.55847 14.6698 5.61953L14.7628 5.62759C15.7716 5.71508 16.1701 6.9792 15.394 7.6295V7.6295C14.8522 8.0834 14.8522 8.9166 15.394 9.3705V9.3705C16.1701 10.0208 15.7716 11.2849 14.7628 11.3724L14.6698 11.3805C13.9659 11.4415 13.4799 12.1127 13.6415 12.8006V12.8006C13.8729 13.7854 12.82 14.5734 11.9404 14.0737L11.8155 14.0028C11.1937 13.6496 10.4028 13.9066 10.1075 14.5579V14.5579C9.67586 15.5096 8.32414 15.5096 7.89255 14.5579V14.5579C7.59719 13.9066 6.8063 13.6496 6.18448 14.0028L6.05963 14.0737C5.17997 14.5734 4.12711 13.7854 4.35852 12.8006V12.8006C4.52014 12.1127 4.0341 11.4415 3.33017 11.3805L3.23722 11.3724C2.22843 11.2849 1.82985 10.0208 2.60601 9.3705V9.3705C3.14777 8.9166 3.14777 8.0834 2.60601 7.6295V7.6295C1.82985 6.9792 2.22843 5.71508 3.23722 5.62759L3.33016 5.61953C4.0341 5.55847 4.52014 4.88727 4.35852 4.19943V4.19943C4.12711 3.21458 5.17997 2.42658 6.05963 2.92627L6.18448 2.99719C6.8063 3.35041 7.59719 3.09338 7.89255 2.44208V2.44208Z" stroke="#EF323B" stroke-miterlimit="10"/>
<path d="M6.24675 7.04052C6.66168 7.45546 7.33442 7.45546 7.74935 7.04052C8.16428 6.62559 8.16428 5.95285 7.74935 5.53792C7.33442 5.12299 6.66168 5.12299 6.24675 5.53792C5.83181 5.95285 5.83181 6.62559 6.24675 7.04052Z" fill="#E63B1E"/>
<path d="M11.1289 6.37158L6.87153 10.629" stroke="#EF323B" stroke-linecap="round"/>
<path d="M10.2526 11.0474C10.6675 11.4623 11.3403 11.4623 11.7552 11.0474C12.1701 10.6324 12.1701 9.95969 11.7552 9.54476C11.3403 9.12983 10.6675 9.12983 10.2526 9.54476C9.83767 9.95969 9.83767 10.6324 10.2526 11.0474Z" fill="#E63B1E"/>
</svg>
