<svg width="15" height="14" viewBox="0 0 15 14" fill="none" xmlns="http://www.w3.org/2000/svg">
<path d="M1.20332 11.3171L3.27473 7.75369C3.54565 7.28763 3.54564 6.71203 3.27471 6.24598L1.20334 2.68288C1.07025 2.45394 0.98744 2.19209 1.02542 1.93C1.07792 1.56768 1.22122 1.30364 1.53718 1.20389C1.73878 1.14024 1.9536 1.20484 2.14653 1.29129L13.0662 6.1841C13.285 6.28216 13.463 6.44572 13.4859 6.68443C13.5048 6.88218 13.5047 7.12384 13.4855 7.32072C13.4626 7.55619 13.2867 7.7171 13.0708 7.81384L2.14631 12.7088C1.95352 12.7952 1.73888 12.8597 1.5374 12.7962C1.22128 12.6966 1.07792 12.4324 1.02541 12.07C0.987444 11.8079 1.07024 11.5461 1.20332 11.3171Z" stroke="white" stroke-width="1.2" stroke-linecap="round"/>
<path d="M13.334 7L3.91586 6.99982" stroke="white" stroke-width="1.2" stroke-linecap="round"/>
</svg>
