<svg width="14" height="15" viewBox="0 0 14 15" fill="none" xmlns="http://www.w3.org/2000/svg">
<path d="M1.14258 5.29151V12.5827C1.14258 13.227 1.66491 13.7493 2.30924 13.7493H11.6868C12.3311 13.7493 12.8534 13.227 12.8534 12.5827V5.2915" stroke="white" stroke-width="1.2"/>
<path d="M4.7207 13.9068V10.7969C4.7207 10.3136 5.11245 9.92188 5.5957 9.92188H8.39992C8.88317 9.92188 9.27492 10.3136 9.27492 10.7969V13.9068" stroke="white" stroke-width="1.2"/>
<path fill-rule="evenodd" clip-rule="evenodd" d="M10.251 5.66743C9.86317 6.13381 9.27852 6.43073 8.62452 6.43073C7.97052 6.43073 7.38587 6.13381 6.99801 5.66743C6.61016 6.13381 6.02551 6.43073 5.37151 6.43073C4.71751 6.43073 4.13286 6.13381 3.745 5.66743C3.35714 6.13381 2.77249 6.43073 2.11849 6.43073C1.11816 6.43073 0.281144 5.73654 0.0607166 4.80418C-0.0390738 4.38208 0.116143 3.998 0.283747 3.73462L1.97394 1.0786C2.30236 0.562524 2.87167 0.25 3.48339 0.25H10.5126C11.1244 0.25 11.6937 0.562524 12.0221 1.0786L13.7123 3.73462C13.8799 3.998 14.0351 4.38208 13.9353 4.80418C13.7149 5.73654 12.8779 6.43073 11.8775 6.43073C11.2235 6.43073 10.6389 6.13381 10.251 5.66743ZM2.79728 1.60254C2.94655 1.36796 3.20533 1.2259 3.48339 1.2259H10.5126C10.7907 1.2259 11.0495 1.36796 11.1988 1.60254L12.8889 4.25856C12.9871 4.41274 12.9997 4.52008 12.9856 4.57965C12.8669 5.08166 12.4152 5.45482 11.8775 5.45482C11.2487 5.45482 10.739 4.94507 10.739 4.31627H9.76307C9.76307 4.94507 9.25333 5.45482 8.62452 5.45482C7.99604 5.45482 7.48649 4.9456 7.48597 4.31724L6.51006 4.31627C6.50954 4.94463 5.99999 5.45482 5.37151 5.45482C4.7427 5.45482 4.23295 4.94507 4.23295 4.31627H3.25705C3.25705 4.94507 2.7473 5.45482 2.11849 5.45482C1.58082 5.45482 1.12912 5.08166 1.01044 4.57965C0.996358 4.52008 1.00896 4.41274 1.10708 4.25856L2.79728 1.60254Z" fill="white"/>
</svg>
