<?xml version="1.0" encoding="utf-8"?>
<svg xmlns="http://www.w3.org/2000/svg" xmlns:xlink="http://www.w3.org/1999/xlink" style="margin: auto; background: rgb(255, 255, 255); display: block; shape-rendering: auto;" width="96px" height="96px" viewBox="0 0 100 100" preserveAspectRatio="xMidYMid">
<g transform="rotate(0 50 50)">
  <rect x="49.5" y="21" rx="0.5" ry="6" width="1" height="12" fill="#bababa">
    <animate attributeName="opacity" values="1;0" keyTimes="0;1" dur="1.2987012987012987s" begin="-1.2857142857142858s" repeatCount="indefinite"></animate>
  </rect>
</g><g transform="rotate(3.6 50 50)">
  <rect x="49.5" y="21" rx="0.5" ry="6" width="1" height="12" fill="#bababa">
    <animate attributeName="opacity" values="1;0" keyTimes="0;1" dur="1.2987012987012987s" begin="-1.2727272727272727s" repeatCount="indefinite"></animate>
  </rect>
</g><g transform="rotate(7.2 50 50)">
  <rect x="49.5" y="21" rx="0.5" ry="6" width="1" height="12" fill="#bababa">
    <animate attributeName="opacity" values="1;0" keyTimes="0;1" dur="1.2987012987012987s" begin="-1.2597402597402598s" repeatCount="indefinite"></animate>
  </rect>
</g><g transform="rotate(10.8 50 50)">
  <rect x="49.5" y="21" rx="0.5" ry="6" width="1" height="12" fill="#bababa">
    <animate attributeName="opacity" values="1;0" keyTimes="0;1" dur="1.2987012987012987s" begin="-1.2467532467532467s" repeatCount="indefinite"></animate>
  </rect>
</g><g transform="rotate(14.4 50 50)">
  <rect x="49.5" y="21" rx="0.5" ry="6" width="1" height="12" fill="#bababa">
    <animate attributeName="opacity" values="1;0" keyTimes="0;1" dur="1.2987012987012987s" begin="-1.2337662337662338s" repeatCount="indefinite"></animate>
  </rect>
</g><g transform="rotate(18 50 50)">
  <rect x="49.5" y="21" rx="0.5" ry="6" width="1" height="12" fill="#bababa">
    <animate attributeName="opacity" values="1;0" keyTimes="0;1" dur="1.2987012987012987s" begin="-1.2207792207792207s" repeatCount="indefinite"></animate>
  </rect>
</g><g transform="rotate(21.6 50 50)">
  <rect x="49.5" y="21" rx="0.5" ry="6" width="1" height="12" fill="#bababa">
    <animate attributeName="opacity" values="1;0" keyTimes="0;1" dur="1.2987012987012987s" begin="-1.2077922077922079s" repeatCount="indefinite"></animate>
  </rect>
</g><g transform="rotate(25.2 50 50)">
  <rect x="49.5" y="21" rx="0.5" ry="6" width="1" height="12" fill="#bababa">
    <animate attributeName="opacity" values="1;0" keyTimes="0;1" dur="1.2987012987012987s" begin="-1.1948051948051948s" repeatCount="indefinite"></animate>
  </rect>
</g><g transform="rotate(28.8 50 50)">
  <rect x="49.5" y="21" rx="0.5" ry="6" width="1" height="12" fill="#bababa">
    <animate attributeName="opacity" values="1;0" keyTimes="0;1" dur="1.2987012987012987s" begin="-1.1818181818181819s" repeatCount="indefinite"></animate>
  </rect>
</g><g transform="rotate(32.4 50 50)">
  <rect x="49.5" y="21" rx="0.5" ry="6" width="1" height="12" fill="#bababa">
    <animate attributeName="opacity" values="1;0" keyTimes="0;1" dur="1.2987012987012987s" begin="-1.1688311688311688s" repeatCount="indefinite"></animate>
  </rect>
</g><g transform="rotate(36 50 50)">
  <rect x="49.5" y="21" rx="0.5" ry="6" width="1" height="12" fill="#bababa">
    <animate attributeName="opacity" values="1;0" keyTimes="0;1" dur="1.2987012987012987s" begin="-1.155844155844156s" repeatCount="indefinite"></animate>
  </rect>
</g><g transform="rotate(39.6 50 50)">
  <rect x="49.5" y="21" rx="0.5" ry="6" width="1" height="12" fill="#bababa">
    <animate attributeName="opacity" values="1;0" keyTimes="0;1" dur="1.2987012987012987s" begin="-1.1428571428571428s" repeatCount="indefinite"></animate>
  </rect>
</g><g transform="rotate(43.2 50 50)">
  <rect x="49.5" y="21" rx="0.5" ry="6" width="1" height="12" fill="#bababa">
    <animate attributeName="opacity" values="1;0" keyTimes="0;1" dur="1.2987012987012987s" begin="-1.12987012987013s" repeatCount="indefinite"></animate>
  </rect>
</g><g transform="rotate(46.8 50 50)">
  <rect x="49.5" y="21" rx="0.5" ry="6" width="1" height="12" fill="#bababa">
    <animate attributeName="opacity" values="1;0" keyTimes="0;1" dur="1.2987012987012987s" begin="-1.1168831168831168s" repeatCount="indefinite"></animate>
  </rect>
</g><g transform="rotate(50.4 50 50)">
  <rect x="49.5" y="21" rx="0.5" ry="6" width="1" height="12" fill="#bababa">
    <animate attributeName="opacity" values="1;0" keyTimes="0;1" dur="1.2987012987012987s" begin="-1.103896103896104s" repeatCount="indefinite"></animate>
  </rect>
</g><g transform="rotate(54 50 50)">
  <rect x="49.5" y="21" rx="0.5" ry="6" width="1" height="12" fill="#bababa">
    <animate attributeName="opacity" values="1;0" keyTimes="0;1" dur="1.2987012987012987s" begin="-1.0909090909090908s" repeatCount="indefinite"></animate>
  </rect>
</g><g transform="rotate(57.6 50 50)">
  <rect x="49.5" y="21" rx="0.5" ry="6" width="1" height="12" fill="#bababa">
    <animate attributeName="opacity" values="1;0" keyTimes="0;1" dur="1.2987012987012987s" begin="-1.077922077922078s" repeatCount="indefinite"></animate>
  </rect>
</g><g transform="rotate(61.2 50 50)">
  <rect x="49.5" y="21" rx="0.5" ry="6" width="1" height="12" fill="#bababa">
    <animate attributeName="opacity" values="1;0" keyTimes="0;1" dur="1.2987012987012987s" begin="-1.0649350649350648s" repeatCount="indefinite"></animate>
  </rect>
</g><g transform="rotate(64.8 50 50)">
  <rect x="49.5" y="21" rx="0.5" ry="6" width="1" height="12" fill="#bababa">
    <animate attributeName="opacity" values="1;0" keyTimes="0;1" dur="1.2987012987012987s" begin="-1.051948051948052s" repeatCount="indefinite"></animate>
  </rect>
</g><g transform="rotate(68.4 50 50)">
  <rect x="49.5" y="21" rx="0.5" ry="6" width="1" height="12" fill="#bababa">
    <animate attributeName="opacity" values="1;0" keyTimes="0;1" dur="1.2987012987012987s" begin="-1.0389610389610389s" repeatCount="indefinite"></animate>
  </rect>
</g><g transform="rotate(72 50 50)">
  <rect x="49.5" y="21" rx="0.5" ry="6" width="1" height="12" fill="#bababa">
    <animate attributeName="opacity" values="1;0" keyTimes="0;1" dur="1.2987012987012987s" begin="-1.025974025974026s" repeatCount="indefinite"></animate>
  </rect>
</g><g transform="rotate(75.6 50 50)">
  <rect x="49.5" y="21" rx="0.5" ry="6" width="1" height="12" fill="#bababa">
    <animate attributeName="opacity" values="1;0" keyTimes="0;1" dur="1.2987012987012987s" begin="-1.0129870129870129s" repeatCount="indefinite"></animate>
  </rect>
</g><g transform="rotate(79.2 50 50)">
  <rect x="49.5" y="21" rx="0.5" ry="6" width="1" height="12" fill="#bababa">
    <animate attributeName="opacity" values="1;0" keyTimes="0;1" dur="1.2987012987012987s" begin="-1s" repeatCount="indefinite"></animate>
  </rect>
</g><g transform="rotate(82.8 50 50)">
  <rect x="49.5" y="21" rx="0.5" ry="6" width="1" height="12" fill="#bababa">
    <animate attributeName="opacity" values="1;0" keyTimes="0;1" dur="1.2987012987012987s" begin="-0.987012987012987s" repeatCount="indefinite"></animate>
  </rect>
</g><g transform="rotate(86.4 50 50)">
  <rect x="49.5" y="21" rx="0.5" ry="6" width="1" height="12" fill="#bababa">
    <animate attributeName="opacity" values="1;0" keyTimes="0;1" dur="1.2987012987012987s" begin="-0.974025974025974s" repeatCount="indefinite"></animate>
  </rect>
</g><g transform="rotate(90 50 50)">
  <rect x="49.5" y="21" rx="0.5" ry="6" width="1" height="12" fill="#bababa">
    <animate attributeName="opacity" values="1;0" keyTimes="0;1" dur="1.2987012987012987s" begin="-0.961038961038961s" repeatCount="indefinite"></animate>
  </rect>
</g><g transform="rotate(93.6 50 50)">
  <rect x="49.5" y="21" rx="0.5" ry="6" width="1" height="12" fill="#bababa">
    <animate attributeName="opacity" values="1;0" keyTimes="0;1" dur="1.2987012987012987s" begin="-0.948051948051948s" repeatCount="indefinite"></animate>
  </rect>
</g><g transform="rotate(97.2 50 50)">
  <rect x="49.5" y="21" rx="0.5" ry="6" width="1" height="12" fill="#bababa">
    <animate attributeName="opacity" values="1;0" keyTimes="0;1" dur="1.2987012987012987s" begin="-0.935064935064935s" repeatCount="indefinite"></animate>
  </rect>
</g><g transform="rotate(100.8 50 50)">
  <rect x="49.5" y="21" rx="0.5" ry="6" width="1" height="12" fill="#bababa">
    <animate attributeName="opacity" values="1;0" keyTimes="0;1" dur="1.2987012987012987s" begin="-0.922077922077922s" repeatCount="indefinite"></animate>
  </rect>
</g><g transform="rotate(104.4 50 50)">
  <rect x="49.5" y="21" rx="0.5" ry="6" width="1" height="12" fill="#bababa">
    <animate attributeName="opacity" values="1;0" keyTimes="0;1" dur="1.2987012987012987s" begin="-0.9090909090909091s" repeatCount="indefinite"></animate>
  </rect>
</g><g transform="rotate(108 50 50)">
  <rect x="49.5" y="21" rx="0.5" ry="6" width="1" height="12" fill="#bababa">
    <animate attributeName="opacity" values="1;0" keyTimes="0;1" dur="1.2987012987012987s" begin="-0.8961038961038961s" repeatCount="indefinite"></animate>
  </rect>
</g><g transform="rotate(111.6 50 50)">
  <rect x="49.5" y="21" rx="0.5" ry="6" width="1" height="12" fill="#bababa">
    <animate attributeName="opacity" values="1;0" keyTimes="0;1" dur="1.2987012987012987s" begin="-0.8831168831168831s" repeatCount="indefinite"></animate>
  </rect>
</g><g transform="rotate(115.2 50 50)">
  <rect x="49.5" y="21" rx="0.5" ry="6" width="1" height="12" fill="#bababa">
    <animate attributeName="opacity" values="1;0" keyTimes="0;1" dur="1.2987012987012987s" begin="-0.8701298701298701s" repeatCount="indefinite"></animate>
  </rect>
</g><g transform="rotate(118.8 50 50)">
  <rect x="49.5" y="21" rx="0.5" ry="6" width="1" height="12" fill="#bababa">
    <animate attributeName="opacity" values="1;0" keyTimes="0;1" dur="1.2987012987012987s" begin="-0.8571428571428571s" repeatCount="indefinite"></animate>
  </rect>
</g><g transform="rotate(122.4 50 50)">
  <rect x="49.5" y="21" rx="0.5" ry="6" width="1" height="12" fill="#bababa">
    <animate attributeName="opacity" values="1;0" keyTimes="0;1" dur="1.2987012987012987s" begin="-0.8441558441558441s" repeatCount="indefinite"></animate>
  </rect>
</g><g transform="rotate(126 50 50)">
  <rect x="49.5" y="21" rx="0.5" ry="6" width="1" height="12" fill="#bababa">
    <animate attributeName="opacity" values="1;0" keyTimes="0;1" dur="1.2987012987012987s" begin="-0.8311688311688312s" repeatCount="indefinite"></animate>
  </rect>
</g><g transform="rotate(129.6 50 50)">
  <rect x="49.5" y="21" rx="0.5" ry="6" width="1" height="12" fill="#bababa">
    <animate attributeName="opacity" values="1;0" keyTimes="0;1" dur="1.2987012987012987s" begin="-0.8181818181818182s" repeatCount="indefinite"></animate>
  </rect>
</g><g transform="rotate(133.2 50 50)">
  <rect x="49.5" y="21" rx="0.5" ry="6" width="1" height="12" fill="#bababa">
    <animate attributeName="opacity" values="1;0" keyTimes="0;1" dur="1.2987012987012987s" begin="-0.8051948051948052s" repeatCount="indefinite"></animate>
  </rect>
</g><g transform="rotate(136.8 50 50)">
  <rect x="49.5" y="21" rx="0.5" ry="6" width="1" height="12" fill="#bababa">
    <animate attributeName="opacity" values="1;0" keyTimes="0;1" dur="1.2987012987012987s" begin="-0.7922077922077922s" repeatCount="indefinite"></animate>
  </rect>
</g><g transform="rotate(140.4 50 50)">
  <rect x="49.5" y="21" rx="0.5" ry="6" width="1" height="12" fill="#bababa">
    <animate attributeName="opacity" values="1;0" keyTimes="0;1" dur="1.2987012987012987s" begin="-0.7792207792207793s" repeatCount="indefinite"></animate>
  </rect>
</g><g transform="rotate(144 50 50)">
  <rect x="49.5" y="21" rx="0.5" ry="6" width="1" height="12" fill="#bababa">
    <animate attributeName="opacity" values="1;0" keyTimes="0;1" dur="1.2987012987012987s" begin="-0.7662337662337663s" repeatCount="indefinite"></animate>
  </rect>
</g><g transform="rotate(147.6 50 50)">
  <rect x="49.5" y="21" rx="0.5" ry="6" width="1" height="12" fill="#bababa">
    <animate attributeName="opacity" values="1;0" keyTimes="0;1" dur="1.2987012987012987s" begin="-0.7532467532467533s" repeatCount="indefinite"></animate>
  </rect>
</g><g transform="rotate(151.2 50 50)">
  <rect x="49.5" y="21" rx="0.5" ry="6" width="1" height="12" fill="#bababa">
    <animate attributeName="opacity" values="1;0" keyTimes="0;1" dur="1.2987012987012987s" begin="-0.7402597402597403s" repeatCount="indefinite"></animate>
  </rect>
</g><g transform="rotate(154.8 50 50)">
  <rect x="49.5" y="21" rx="0.5" ry="6" width="1" height="12" fill="#bababa">
    <animate attributeName="opacity" values="1;0" keyTimes="0;1" dur="1.2987012987012987s" begin="-0.7272727272727273s" repeatCount="indefinite"></animate>
  </rect>
</g><g transform="rotate(158.4 50 50)">
  <rect x="49.5" y="21" rx="0.5" ry="6" width="1" height="12" fill="#bababa">
    <animate attributeName="opacity" values="1;0" keyTimes="0;1" dur="1.2987012987012987s" begin="-0.7142857142857143s" repeatCount="indefinite"></animate>
  </rect>
</g><g transform="rotate(162 50 50)">
  <rect x="49.5" y="21" rx="0.5" ry="6" width="1" height="12" fill="#bababa">
    <animate attributeName="opacity" values="1;0" keyTimes="0;1" dur="1.2987012987012987s" begin="-0.7012987012987013s" repeatCount="indefinite"></animate>
  </rect>
</g><g transform="rotate(165.6 50 50)">
  <rect x="49.5" y="21" rx="0.5" ry="6" width="1" height="12" fill="#bababa">
    <animate attributeName="opacity" values="1;0" keyTimes="0;1" dur="1.2987012987012987s" begin="-0.6883116883116883s" repeatCount="indefinite"></animate>
  </rect>
</g><g transform="rotate(169.2 50 50)">
  <rect x="49.5" y="21" rx="0.5" ry="6" width="1" height="12" fill="#bababa">
    <animate attributeName="opacity" values="1;0" keyTimes="0;1" dur="1.2987012987012987s" begin="-0.6753246753246753s" repeatCount="indefinite"></animate>
  </rect>
</g><g transform="rotate(172.8 50 50)">
  <rect x="49.5" y="21" rx="0.5" ry="6" width="1" height="12" fill="#bababa">
    <animate attributeName="opacity" values="1;0" keyTimes="0;1" dur="1.2987012987012987s" begin="-0.6623376623376623s" repeatCount="indefinite"></animate>
  </rect>
</g><g transform="rotate(176.4 50 50)">
  <rect x="49.5" y="21" rx="0.5" ry="6" width="1" height="12" fill="#bababa">
    <animate attributeName="opacity" values="1;0" keyTimes="0;1" dur="1.2987012987012987s" begin="-0.6493506493506493s" repeatCount="indefinite"></animate>
  </rect>
</g><g transform="rotate(180 50 50)">
  <rect x="49.5" y="21" rx="0.5" ry="6" width="1" height="12" fill="#bababa">
    <animate attributeName="opacity" values="1;0" keyTimes="0;1" dur="1.2987012987012987s" begin="-0.6363636363636364s" repeatCount="indefinite"></animate>
  </rect>
</g><g transform="rotate(183.6 50 50)">
  <rect x="49.5" y="21" rx="0.5" ry="6" width="1" height="12" fill="#bababa">
    <animate attributeName="opacity" values="1;0" keyTimes="0;1" dur="1.2987012987012987s" begin="-0.6233766233766234s" repeatCount="indefinite"></animate>
  </rect>
</g><g transform="rotate(187.2 50 50)">
  <rect x="49.5" y="21" rx="0.5" ry="6" width="1" height="12" fill="#bababa">
    <animate attributeName="opacity" values="1;0" keyTimes="0;1" dur="1.2987012987012987s" begin="-0.6103896103896104s" repeatCount="indefinite"></animate>
  </rect>
</g><g transform="rotate(190.8 50 50)">
  <rect x="49.5" y="21" rx="0.5" ry="6" width="1" height="12" fill="#bababa">
    <animate attributeName="opacity" values="1;0" keyTimes="0;1" dur="1.2987012987012987s" begin="-0.5974025974025974s" repeatCount="indefinite"></animate>
  </rect>
</g><g transform="rotate(194.4 50 50)">
  <rect x="49.5" y="21" rx="0.5" ry="6" width="1" height="12" fill="#bababa">
    <animate attributeName="opacity" values="1;0" keyTimes="0;1" dur="1.2987012987012987s" begin="-0.5844155844155844s" repeatCount="indefinite"></animate>
  </rect>
</g><g transform="rotate(198 50 50)">
  <rect x="49.5" y="21" rx="0.5" ry="6" width="1" height="12" fill="#bababa">
    <animate attributeName="opacity" values="1;0" keyTimes="0;1" dur="1.2987012987012987s" begin="-0.5714285714285714s" repeatCount="indefinite"></animate>
  </rect>
</g><g transform="rotate(201.6 50 50)">
  <rect x="49.5" y="21" rx="0.5" ry="6" width="1" height="12" fill="#bababa">
    <animate attributeName="opacity" values="1;0" keyTimes="0;1" dur="1.2987012987012987s" begin="-0.5584415584415584s" repeatCount="indefinite"></animate>
  </rect>
</g><g transform="rotate(205.2 50 50)">
  <rect x="49.5" y="21" rx="0.5" ry="6" width="1" height="12" fill="#bababa">
    <animate attributeName="opacity" values="1;0" keyTimes="0;1" dur="1.2987012987012987s" begin="-0.5454545454545454s" repeatCount="indefinite"></animate>
  </rect>
</g><g transform="rotate(208.8 50 50)">
  <rect x="49.5" y="21" rx="0.5" ry="6" width="1" height="12" fill="#bababa">
    <animate attributeName="opacity" values="1;0" keyTimes="0;1" dur="1.2987012987012987s" begin="-0.5324675324675324s" repeatCount="indefinite"></animate>
  </rect>
</g><g transform="rotate(212.4 50 50)">
  <rect x="49.5" y="21" rx="0.5" ry="6" width="1" height="12" fill="#bababa">
    <animate attributeName="opacity" values="1;0" keyTimes="0;1" dur="1.2987012987012987s" begin="-0.5194805194805194s" repeatCount="indefinite"></animate>
  </rect>
</g><g transform="rotate(216 50 50)">
  <rect x="49.5" y="21" rx="0.5" ry="6" width="1" height="12" fill="#bababa">
    <animate attributeName="opacity" values="1;0" keyTimes="0;1" dur="1.2987012987012987s" begin="-0.5064935064935064s" repeatCount="indefinite"></animate>
  </rect>
</g><g transform="rotate(219.6 50 50)">
  <rect x="49.5" y="21" rx="0.5" ry="6" width="1" height="12" fill="#bababa">
    <animate attributeName="opacity" values="1;0" keyTimes="0;1" dur="1.2987012987012987s" begin="-0.4935064935064935s" repeatCount="indefinite"></animate>
  </rect>
</g><g transform="rotate(223.2 50 50)">
  <rect x="49.5" y="21" rx="0.5" ry="6" width="1" height="12" fill="#bababa">
    <animate attributeName="opacity" values="1;0" keyTimes="0;1" dur="1.2987012987012987s" begin="-0.4805194805194805s" repeatCount="indefinite"></animate>
  </rect>
</g><g transform="rotate(226.8 50 50)">
  <rect x="49.5" y="21" rx="0.5" ry="6" width="1" height="12" fill="#bababa">
    <animate attributeName="opacity" values="1;0" keyTimes="0;1" dur="1.2987012987012987s" begin="-0.4675324675324675s" repeatCount="indefinite"></animate>
  </rect>
</g><g transform="rotate(230.4 50 50)">
  <rect x="49.5" y="21" rx="0.5" ry="6" width="1" height="12" fill="#bababa">
    <animate attributeName="opacity" values="1;0" keyTimes="0;1" dur="1.2987012987012987s" begin="-0.45454545454545453s" repeatCount="indefinite"></animate>
  </rect>
</g><g transform="rotate(234 50 50)">
  <rect x="49.5" y="21" rx="0.5" ry="6" width="1" height="12" fill="#bababa">
    <animate attributeName="opacity" values="1;0" keyTimes="0;1" dur="1.2987012987012987s" begin="-0.44155844155844154s" repeatCount="indefinite"></animate>
  </rect>
</g><g transform="rotate(237.6 50 50)">
  <rect x="49.5" y="21" rx="0.5" ry="6" width="1" height="12" fill="#bababa">
    <animate attributeName="opacity" values="1;0" keyTimes="0;1" dur="1.2987012987012987s" begin="-0.42857142857142855s" repeatCount="indefinite"></animate>
  </rect>
</g><g transform="rotate(241.2 50 50)">
  <rect x="49.5" y="21" rx="0.5" ry="6" width="1" height="12" fill="#bababa">
    <animate attributeName="opacity" values="1;0" keyTimes="0;1" dur="1.2987012987012987s" begin="-0.4155844155844156s" repeatCount="indefinite"></animate>
  </rect>
</g><g transform="rotate(244.8 50 50)">
  <rect x="49.5" y="21" rx="0.5" ry="6" width="1" height="12" fill="#bababa">
    <animate attributeName="opacity" values="1;0" keyTimes="0;1" dur="1.2987012987012987s" begin="-0.4025974025974026s" repeatCount="indefinite"></animate>
  </rect>
</g><g transform="rotate(248.4 50 50)">
  <rect x="49.5" y="21" rx="0.5" ry="6" width="1" height="12" fill="#bababa">
    <animate attributeName="opacity" values="1;0" keyTimes="0;1" dur="1.2987012987012987s" begin="-0.38961038961038963s" repeatCount="indefinite"></animate>
  </rect>
</g><g transform="rotate(252 50 50)">
  <rect x="49.5" y="21" rx="0.5" ry="6" width="1" height="12" fill="#bababa">
    <animate attributeName="opacity" values="1;0" keyTimes="0;1" dur="1.2987012987012987s" begin="-0.37662337662337664s" repeatCount="indefinite"></animate>
  </rect>
</g><g transform="rotate(255.6 50 50)">
  <rect x="49.5" y="21" rx="0.5" ry="6" width="1" height="12" fill="#bababa">
    <animate attributeName="opacity" values="1;0" keyTimes="0;1" dur="1.2987012987012987s" begin="-0.36363636363636365s" repeatCount="indefinite"></animate>
  </rect>
</g><g transform="rotate(259.2 50 50)">
  <rect x="49.5" y="21" rx="0.5" ry="6" width="1" height="12" fill="#bababa">
    <animate attributeName="opacity" values="1;0" keyTimes="0;1" dur="1.2987012987012987s" begin="-0.35064935064935066s" repeatCount="indefinite"></animate>
  </rect>
</g><g transform="rotate(262.8 50 50)">
  <rect x="49.5" y="21" rx="0.5" ry="6" width="1" height="12" fill="#bababa">
    <animate attributeName="opacity" values="1;0" keyTimes="0;1" dur="1.2987012987012987s" begin="-0.33766233766233766s" repeatCount="indefinite"></animate>
  </rect>
</g><g transform="rotate(266.4 50 50)">
  <rect x="49.5" y="21" rx="0.5" ry="6" width="1" height="12" fill="#bababa">
    <animate attributeName="opacity" values="1;0" keyTimes="0;1" dur="1.2987012987012987s" begin="-0.3246753246753247s" repeatCount="indefinite"></animate>
  </rect>
</g><g transform="rotate(270 50 50)">
  <rect x="49.5" y="21" rx="0.5" ry="6" width="1" height="12" fill="#bababa">
    <animate attributeName="opacity" values="1;0" keyTimes="0;1" dur="1.2987012987012987s" begin="-0.3116883116883117s" repeatCount="indefinite"></animate>
  </rect>
</g><g transform="rotate(273.6 50 50)">
  <rect x="49.5" y="21" rx="0.5" ry="6" width="1" height="12" fill="#bababa">
    <animate attributeName="opacity" values="1;0" keyTimes="0;1" dur="1.2987012987012987s" begin="-0.2987012987012987s" repeatCount="indefinite"></animate>
  </rect>
</g><g transform="rotate(277.2 50 50)">
  <rect x="49.5" y="21" rx="0.5" ry="6" width="1" height="12" fill="#bababa">
    <animate attributeName="opacity" values="1;0" keyTimes="0;1" dur="1.2987012987012987s" begin="-0.2857142857142857s" repeatCount="indefinite"></animate>
  </rect>
</g><g transform="rotate(280.8 50 50)">
  <rect x="49.5" y="21" rx="0.5" ry="6" width="1" height="12" fill="#bababa">
    <animate attributeName="opacity" values="1;0" keyTimes="0;1" dur="1.2987012987012987s" begin="-0.2727272727272727s" repeatCount="indefinite"></animate>
  </rect>
</g><g transform="rotate(284.4 50 50)">
  <rect x="49.5" y="21" rx="0.5" ry="6" width="1" height="12" fill="#bababa">
    <animate attributeName="opacity" values="1;0" keyTimes="0;1" dur="1.2987012987012987s" begin="-0.2597402597402597s" repeatCount="indefinite"></animate>
  </rect>
</g><g transform="rotate(288 50 50)">
  <rect x="49.5" y="21" rx="0.5" ry="6" width="1" height="12" fill="#bababa">
    <animate attributeName="opacity" values="1;0" keyTimes="0;1" dur="1.2987012987012987s" begin="-0.24675324675324675s" repeatCount="indefinite"></animate>
  </rect>
</g><g transform="rotate(291.6 50 50)">
  <rect x="49.5" y="21" rx="0.5" ry="6" width="1" height="12" fill="#bababa">
    <animate attributeName="opacity" values="1;0" keyTimes="0;1" dur="1.2987012987012987s" begin="-0.23376623376623376s" repeatCount="indefinite"></animate>
  </rect>
</g><g transform="rotate(295.2 50 50)">
  <rect x="49.5" y="21" rx="0.5" ry="6" width="1" height="12" fill="#bababa">
    <animate attributeName="opacity" values="1;0" keyTimes="0;1" dur="1.2987012987012987s" begin="-0.22077922077922077s" repeatCount="indefinite"></animate>
  </rect>
</g><g transform="rotate(298.8 50 50)">
  <rect x="49.5" y="21" rx="0.5" ry="6" width="1" height="12" fill="#bababa">
    <animate attributeName="opacity" values="1;0" keyTimes="0;1" dur="1.2987012987012987s" begin="-0.2077922077922078s" repeatCount="indefinite"></animate>
  </rect>
</g><g transform="rotate(302.4 50 50)">
  <rect x="49.5" y="21" rx="0.5" ry="6" width="1" height="12" fill="#bababa">
    <animate attributeName="opacity" values="1;0" keyTimes="0;1" dur="1.2987012987012987s" begin="-0.19480519480519481s" repeatCount="indefinite"></animate>
  </rect>
</g><g transform="rotate(306 50 50)">
  <rect x="49.5" y="21" rx="0.5" ry="6" width="1" height="12" fill="#bababa">
    <animate attributeName="opacity" values="1;0" keyTimes="0;1" dur="1.2987012987012987s" begin="-0.18181818181818182s" repeatCount="indefinite"></animate>
  </rect>
</g><g transform="rotate(309.6 50 50)">
  <rect x="49.5" y="21" rx="0.5" ry="6" width="1" height="12" fill="#bababa">
    <animate attributeName="opacity" values="1;0" keyTimes="0;1" dur="1.2987012987012987s" begin="-0.16883116883116883s" repeatCount="indefinite"></animate>
  </rect>
</g><g transform="rotate(313.2 50 50)">
  <rect x="49.5" y="21" rx="0.5" ry="6" width="1" height="12" fill="#bababa">
    <animate attributeName="opacity" values="1;0" keyTimes="0;1" dur="1.2987012987012987s" begin="-0.15584415584415584s" repeatCount="indefinite"></animate>
  </rect>
</g><g transform="rotate(316.8 50 50)">
  <rect x="49.5" y="21" rx="0.5" ry="6" width="1" height="12" fill="#bababa">
    <animate attributeName="opacity" values="1;0" keyTimes="0;1" dur="1.2987012987012987s" begin="-0.14285714285714285s" repeatCount="indefinite"></animate>
  </rect>
</g><g transform="rotate(320.4 50 50)">
  <rect x="49.5" y="21" rx="0.5" ry="6" width="1" height="12" fill="#bababa">
    <animate attributeName="opacity" values="1;0" keyTimes="0;1" dur="1.2987012987012987s" begin="-0.12987012987012986s" repeatCount="indefinite"></animate>
  </rect>
</g><g transform="rotate(324 50 50)">
  <rect x="49.5" y="21" rx="0.5" ry="6" width="1" height="12" fill="#bababa">
    <animate attributeName="opacity" values="1;0" keyTimes="0;1" dur="1.2987012987012987s" begin="-0.11688311688311688s" repeatCount="indefinite"></animate>
  </rect>
</g><g transform="rotate(327.6 50 50)">
  <rect x="49.5" y="21" rx="0.5" ry="6" width="1" height="12" fill="#bababa">
    <animate attributeName="opacity" values="1;0" keyTimes="0;1" dur="1.2987012987012987s" begin="-0.1038961038961039s" repeatCount="indefinite"></animate>
  </rect>
</g><g transform="rotate(331.2 50 50)">
  <rect x="49.5" y="21" rx="0.5" ry="6" width="1" height="12" fill="#bababa">
    <animate attributeName="opacity" values="1;0" keyTimes="0;1" dur="1.2987012987012987s" begin="-0.09090909090909091s" repeatCount="indefinite"></animate>
  </rect>
</g><g transform="rotate(334.8 50 50)">
  <rect x="49.5" y="21" rx="0.5" ry="6" width="1" height="12" fill="#bababa">
    <animate attributeName="opacity" values="1;0" keyTimes="0;1" dur="1.2987012987012987s" begin="-0.07792207792207792s" repeatCount="indefinite"></animate>
  </rect>
</g><g transform="rotate(338.4 50 50)">
  <rect x="49.5" y="21" rx="0.5" ry="6" width="1" height="12" fill="#bababa">
    <animate attributeName="opacity" values="1;0" keyTimes="0;1" dur="1.2987012987012987s" begin="-0.06493506493506493s" repeatCount="indefinite"></animate>
  </rect>
</g><g transform="rotate(342 50 50)">
  <rect x="49.5" y="21" rx="0.5" ry="6" width="1" height="12" fill="#bababa">
    <animate attributeName="opacity" values="1;0" keyTimes="0;1" dur="1.2987012987012987s" begin="-0.05194805194805195s" repeatCount="indefinite"></animate>
  </rect>
</g><g transform="rotate(345.6 50 50)">
  <rect x="49.5" y="21" rx="0.5" ry="6" width="1" height="12" fill="#bababa">
    <animate attributeName="opacity" values="1;0" keyTimes="0;1" dur="1.2987012987012987s" begin="-0.03896103896103896s" repeatCount="indefinite"></animate>
  </rect>
</g><g transform="rotate(349.2 50 50)">
  <rect x="49.5" y="21" rx="0.5" ry="6" width="1" height="12" fill="#bababa">
    <animate attributeName="opacity" values="1;0" keyTimes="0;1" dur="1.2987012987012987s" begin="-0.025974025974025976s" repeatCount="indefinite"></animate>
  </rect>
</g><g transform="rotate(352.8 50 50)">
  <rect x="49.5" y="21" rx="0.5" ry="6" width="1" height="12" fill="#bababa">
    <animate attributeName="opacity" values="1;0" keyTimes="0;1" dur="1.2987012987012987s" begin="-0.012987012987012988s" repeatCount="indefinite"></animate>
  </rect>
</g><g transform="rotate(356.4 50 50)">
  <rect x="49.5" y="21" rx="0.5" ry="6" width="1" height="12" fill="#bababa">
    <animate attributeName="opacity" values="1;0" keyTimes="0;1" dur="1.2987012987012987s" begin="0s" repeatCount="indefinite"></animate>
  </rect>
</g>
<!-- [ldio] generated by https://loading.io/ --></svg>